<svg width="2594" height="263" xmlns="http://www.w3.org/2000/svg" xmlns:xlink="http://www.w3.org/1999/xlink" xml:space="preserve" overflow="hidden"><g transform="translate(-101 -1673)"><path d="M1416.39 1768.18C1563.73 1805.45 1712.77 1832.09 1864.24 1845.25L1869.58 1845.73C1934.17 1851.37 1998.88 1853.56 2063.69 1853.39L2089.44 1853.4C2153.37 1853.55 2217.14 1850.98 2280.82 1845.25L2286.54 1844.75C2419.45 1832.92 2554.53 1810.7 2681.28 1768.05 2688.92 1765.66 2688.35 1766.81 2695 1763.37L2695 1936 101 1936 101 1763.63C158.696 1744.39 158.696 1744.39 185.737 1737.4L190.558 1736.14C310.253 1705.06 433.328 1687.34 556.608 1678.78L569.489 1677.82C757.047 1663.75 948.66 1676.67 1416.39 1768.18Z" fill="#FF0000" fill-rule="evenodd"/></g></svg>