<svg width="1280" height="130" xmlns="http://www.w3.org/2000/svg" xmlns:xlink="http://www.w3.org/1999/xlink" xml:space="preserve" overflow="hidden"><defs><clipPath id="clip0"><rect x="274" y="252" width="1280" height="130"/></clipPath></defs><g clip-path="url(#clip0)" transform="translate(-274 -252)"><path d="M698.913 872.502C771.617 890.893 845.16 904.038 919.903 910.532L922.538 910.769C954.409 913.552 986.34 914.633 1018.32 914.549L1031.03 914.554C1062.57 914.628 1094.04 913.359 1125.46 910.532L1128.28 910.285C1193.87 904.448 1260.52 893.483 1323.07 872.438 1326.84 871.259 1326.56 871.826 1329.84 870.129L1329.84 955.312 49.8381 955.312 49.8381 870.257C78.308 860.763 78.308 860.763 91.6513 857.314L94.0302 856.692C153.093 841.356 213.824 832.612 274.656 828.388L281.012 827.914C373.562 820.971 468.113 827.347 698.913 872.502Z" fill="#0000FF" fill-rule="evenodd" transform="matrix(1 0 0 1.00172 224.162 -574.958)"/></g></svg>